<?xml version="1.0" encoding="UTF-8"?>
<svg version="1.1" xmlns="http://www.w3.org/2000/svg" width="512" height="512">
<path d="M0 0 C168.96 0 337.92 0 512 0 C512 168.96 512 337.92 512 512 C343.04 512 174.08 512 0 512 C0 343.04 0 174.08 0 0 Z " fill="#E4ECFB" transform="translate(0,0)"/>
<path d="M0 0 C168.96 0 337.92 0 512 0 C512 168.96 512 337.92 512 512 C343.04 512 174.08 512 0 512 C0 343.04 0 174.08 0 0 Z M102.05078125 100.45703125 C101.53064453 101.71580078 101.53064453 101.71580078 101 103 C97.31269638 104.22910121 93.8821555 104.17643031 90.0402832 104.20532227 C89.23029877 104.21522186 88.42031433 104.22512146 87.58578491 104.23532104 C84.90748013 104.26691809 82.22915761 104.2916864 79.55078125 104.31640625 C77.69418374 104.33697733 75.83759089 104.35797384 73.98100281 104.37937927 C69.09349344 104.43458407 64.20594192 104.4840004 59.31835938 104.53222656 C54.33134202 104.58245318 49.34438592 104.6381332 44.35742188 104.69335938 C34.5716669 104.80092149 24.78585876 104.90237082 15 105 C14.90845295 152.49217321 14.83796557 199.98433708 14.79573868 247.47658112 C14.79073583 253.08293899 14.78555854 258.68929669 14.78027344 264.2956543 C14.7792242 265.41178343 14.77817495 266.52791256 14.77709392 267.67786378 C14.7596867 285.75221868 14.72814724 303.82652271 14.69138882 321.90084743 C14.65398826 340.44552122 14.63176601 358.99016836 14.62364602 377.53487831 C14.61815643 388.97879711 14.60081531 400.42257214 14.56833413 411.86644668 C14.5471972 419.71297695 14.54079811 427.55943284 14.54599449 435.40598952 C14.54855753 439.93367388 14.54461686 444.46110692 14.5231781 448.98874664 C14.50368333 453.13614879 14.50274886 457.28313108 14.51640442 461.43055273 C14.51809163 462.92869257 14.5130421 464.42685882 14.50046727 465.92494684 C14.42758307 475.14620626 14.81375244 483.0147867 20.96484375 490.33984375 C21.94130859 491.13068359 21.94130859 491.13068359 22.9375 491.9375 C23.91009766 492.75541016 23.91009766 492.75541016 24.90234375 493.58984375 C29.66174047 496.78936371 33.96300909 497.29015322 39.58947468 497.25726891 C40.72912047 497.26252802 40.72912047 497.26252802 41.89178941 497.26789337 C44.44634951 497.27722252 47.0006824 497.27228017 49.55525208 497.26742554 C51.40177827 497.27116103 53.24830288 497.27576215 55.09482497 497.28115618 C60.17600645 497.29341402 65.25712223 497.29312244 70.33831513 497.29076743 C75.81560608 497.29035997 81.29287577 497.30139166 86.77015686 497.31088257 C97.50379775 497.32750873 108.23741668 497.33299284 118.97106937 497.33410732 C127.69418847 497.33505702 136.4173003 497.33916338 145.1404171 497.34550858 C165.83761079 497.36025775 186.53479965 497.37255783 207.2319994 497.37151146 C208.22498375 497.37146472 208.22498375 497.37146472 209.23802839 497.37141704 C212.59330464 497.37125083 215.94858088 497.37105274 219.30385713 497.37084763 C219.97023282 497.37080774 220.63660851 497.37076785 221.32317741 497.37072675 C222.67075169 497.37064587 224.01832598 497.37056228 225.36590027 497.37047596 C246.33225877 497.36925044 267.29855259 497.38426352 288.26489258 497.41162109 C311.81789081 497.44234113 335.37085804 497.4595283 358.9238798 497.45769465 C371.39568722 497.45703011 383.86742169 497.4625503 396.33921242 497.48405075 C406.95738116 497.50223809 417.57544388 497.50663 428.19362143 497.4930319 C433.6123095 497.48648996 439.03079403 497.48642937 444.44946289 497.5037384 C449.40955718 497.5194198 454.36928572 497.51665597 459.32937082 497.49917014 C461.12410445 497.49608936 462.91886504 497.49977303 464.71356688 497.51089029 C467.15382104 497.52500572 469.59279121 497.51443053 472.0330019 497.49777794 C472.72930331 497.5077143 473.42560472 497.51765066 474.14300618 497.52788812 C480.46359099 497.43673814 485.50827231 495.14444857 490.2421875 491.0703125 C491.05042969 490.10738281 491.05042969 490.10738281 491.875 489.125 C492.42929687 488.48820312 492.98359375 487.85140625 493.5546875 487.1953125 C496.43868825 482.81474919 497.24976657 478.43153249 497.2515564 473.25619507 C497.25693924 472.13464523 497.26232208 471.0130954 497.26786804 469.8575592 C497.26168205 468.03387062 497.26168205 468.03387062 497.25537109 466.17333984 C497.26092829 464.19068837 497.26648982 462.2080369 497.27221513 460.2253859 C497.27654512 458.10251706 497.27608809 455.97969508 497.27439499 453.85682297 C497.27155497 449.42772685 497.28593792 444.99878933 497.30337524 440.56973267 C497.35034143 427.97847853 497.37435283 415.38723633 497.38085938 402.79589844 C497.38460811 395.83508463 497.40261754 388.8744514 497.43595374 381.913715 C497.45617804 377.51078032 497.45853399 373.10831097 497.44767356 368.70534873 C497.44445744 365.32608463 497.46714885 361.94708331 497.48583984 358.56787109 C497.47358116 356.73810982 497.47358116 356.73810982 497.46107483 354.87138367 C497.47209732 353.75547348 497.48311981 352.63956329 497.49447632 351.48983765 C497.49556585 350.52052999 497.49665539 349.55122234 497.49777794 348.55254173 C498.14821541 345.24669575 499.39728938 344.0757234 502 342 C502.99 341.67 503.98 341.34 505 341 C505 334.4 505 327.8 505 321 C503.35 320.34 501.7 319.68 500 319 C497.44857184 315.17285776 497.7109596 312.06536843 497.7215271 307.62886047 C497.7157347 306.76466765 497.7099423 305.90047483 497.70397437 305.01009434 C497.68691821 302.10345324 497.68409304 299.19697037 497.68115234 296.2902832 C497.67185804 294.21104541 497.66169012 292.13181137 497.65071106 290.05258179 C497.62334085 284.39798906 497.60824088 278.74342134 497.59528303 273.08877969 C497.57968315 267.18303311 497.55288297 261.27733784 497.5272522 255.37162781 C497.48040863 244.18384289 497.44369155 232.99604838 497.41057932 221.80821532 C497.3723973 209.07316895 497.32297691 196.33817403 497.27259517 183.60317099 C497.16919237 157.4021521 497.07995916 131.20110018 497 105 C496.22034636 104.99902319 495.44069271 104.99804638 494.6374132 104.99703997 C448.46755298 104.93881578 402.29774013 104.86505539 356.12793825 104.77101372 C350.5889545 104.75974504 345.0499705 104.74860667 339.51098633 104.73754883 C338.40823641 104.73534514 337.30548649 104.73314146 336.16931991 104.730871 C318.29464157 104.69546211 300.41996328 104.67061827 282.54526284 104.64965298 C264.21528904 104.6279195 245.88536092 104.59489253 227.55542594 104.55129844 C216.2374521 104.52473936 204.9195352 104.50707538 193.60153172 104.50065396 C185.84893482 104.49541306 178.09640967 104.47924002 170.34385117 104.45433434 C165.86558023 104.44027464 161.38743786 104.4311651 156.90914345 104.43499184 C152.81389001 104.43838531 148.71891188 104.42813493 144.6237149 104.40676448 C143.13781269 104.40146688 141.6518821 104.40129253 140.16597994 104.40660437 C138.15463491 104.41306527 136.14325472 104.39948964 134.13195324 104.38476086 C133.01215799 104.38286225 131.89236273 104.38096365 130.73863429 104.37900752 C128 104 128 104 126.17925292 102.66345245 C125 101 125 101 124 98 C120.72963272 97.85489838 117.46008993 97.76600627 114.1875 97.6875 C113.25873047 97.64560547 112.32996094 97.60371094 111.37304688 97.56054688 C105.95439594 97.21269926 105.95439594 97.21269926 102.05078125 100.45703125 Z " fill="#000000" transform="translate(0,0)"/>
<path d="M0 0 C0.75777589 -0.00350607 1.51555178 -0.00701215 2.29629058 -0.01062447 C4.84409815 -0.01995341 7.39167791 -0.01501131 9.93949509 -0.01015663 C11.78118379 -0.01389214 13.62287091 -0.01849327 15.4645555 -0.02388728 C20.53240484 -0.03614503 25.60018831 -0.03585354 30.6680491 -0.03349853 C36.13104414 -0.03309106 41.59401786 -0.04412284 47.05700302 -0.05361366 C57.76290545 -0.07024005 68.46878586 -0.07572396 79.17470011 -0.07683842 C87.87588079 -0.07778815 96.5770542 -0.08189472 105.27823257 -0.08823967 C129.93897911 -0.10585685 154.59971047 -0.11508998 179.26046303 -0.11357872 C180.25759036 -0.11351889 180.25759036 -0.11351889 181.27486168 -0.11345784 C182.61915195 -0.11337697 183.96344221 -0.11329337 185.30773247 -0.11320706 C206.22039453 -0.11198168 227.13299173 -0.12699173 248.04563522 -0.15435219 C271.53968004 -0.18507726 295.03369254 -0.20225907 318.52776027 -0.20042574 C330.96774157 -0.19976135 343.40764973 -0.20527522 355.84761429 -0.22678185 C366.4394041 -0.24497565 377.03108761 -0.24935579 387.62288627 -0.235763 C393.02752157 -0.22922418 398.43195283 -0.22914922 403.83656883 -0.2464695 C408.78499631 -0.26216477 413.73305738 -0.25937274 418.68147573 -0.24190123 C420.47084361 -0.23882352 422.2602386 -0.24249268 424.04957452 -0.25362138 C442.92657754 -0.36324246 442.92657754 -0.36324246 450.76877975 6.22211266 C451.29600632 6.87308922 451.82323288 7.52406578 452.366436 8.19476891 C453.18434616 9.16736656 453.18434616 9.16736656 454.01877975 10.15961266 C456.88023036 14.4161195 457.67818339 18.05499299 457.65598679 23.14911461 C457.65583572 24.30994057 457.65568466 25.47076653 457.65552902 26.66676903 C457.64520645 27.9096418 457.63488388 29.15251457 457.6242485 30.43305016 C457.62000366 32.35349396 457.62000366 32.35349396 457.61567307 34.3127346 C457.60806381 37.70429966 457.58843893 41.09569141 457.56626511 44.48718834 C457.54574806 47.95284239 457.53665886 51.41852465 457.52659225 54.88422203 C457.50455092 61.67531257 457.4710873 68.46627503 457.428936 75.25726891 C456.64928236 75.25824571 455.86962872 75.25922252 455.06634921 75.26022893 C408.89648899 75.31845313 362.72667613 75.39221352 316.55687426 75.48625519 C311.01789051 75.49752386 305.47890651 75.50866223 299.93992233 75.51972008 C298.83717241 75.52192376 297.73442249 75.52412744 296.59825591 75.52639791 C278.72357757 75.5618068 260.84889928 75.58665063 242.97419884 75.60761593 C224.64422505 75.62934941 206.31429692 75.66237637 187.98436195 75.70597047 C176.66638811 75.73252955 165.3484712 75.75019353 154.03046773 75.75661495 C146.27787082 75.76185584 138.52534567 75.77802888 130.77278718 75.80293456 C126.29451623 75.81699426 121.81637386 75.8261038 117.33807945 75.82227707 C113.24282602 75.8188836 109.14784789 75.82913398 105.05265091 75.85050442 C103.5667487 75.85580202 102.08081811 75.85597638 100.59491595 75.85066453 C98.58357091 75.84420364 96.57219073 75.85777927 94.56088924 75.87250805 C92.88119636 75.87535595 92.88119636 75.87535595 91.16757029 75.87826139 C88.43960019 76.0438627 88.43960019 76.0438627 86.60818893 77.53131646 C85.12576357 79.48667254 85.12576357 79.48667254 84.428936 83.25726891 C77.828936 83.25726891 71.228936 83.25726891 64.428936 83.25726891 C64.098936 83.91726891 63.768936 84.57726891 63.428936 85.25726891 C63.30776413 84.69137047 63.18659225 84.12547203 63.0617485 83.54242516 C62.89417038 82.80894859 62.72659225 82.07547203 62.553936 81.31976891 C62.39151413 80.58887047 62.22909225 79.85797203 62.0617485 79.10492516 C61.59932077 77.05026596 61.59932077 77.05026596 59.428936 76.25726891 C56.77518748 76.13483852 54.14595238 76.07158089 51.49094772 76.05194664 C50.67135574 76.04204704 49.85176376 76.03214745 49.00733566 76.02194786 C46.29112793 75.99029357 43.57490268 75.96555993 40.8586235 75.94086266 C38.97817651 75.92029652 37.09773417 75.89930014 35.2172966 75.87788963 C30.2623687 75.82263381 25.30739883 75.77324003 20.35239792 75.72504234 C15.29844544 75.67485293 10.24455407 75.61915352 5.19065475 75.56390953 C-4.72986599 75.45628503 -14.65043973 75.3548496 -24.571064 75.25726891 C-24.66409054 67.83328683 -24.73499322 60.40943217 -24.77831268 52.98498344 C-24.79911293 49.53679759 -24.82728936 46.08901297 -24.87282181 42.64105797 C-24.92493644 38.66942856 -24.94407188 34.69795683 -24.961689 30.72601891 C-24.98233414 29.49862999 -25.00297928 28.27124107 -25.02425003 27.00665855 C-25.02637416 18.8468941 -24.13566942 13.32502937 -18.60622025 7.01508141 C-17.95524368 6.47625328 -17.30426712 5.93742516 -16.633564 5.38226891 C-15.98516556 4.82797203 -15.33676712 4.27367516 -14.66872025 3.70258141 C-9.94155793 0.44550495 -5.62349143 -0.0329555 0 0 Z " fill="#675C67" transform="translate(39.57106399536133,14.742731094360352)"/>
<path d="M0 0 C7.26 0 14.52 0 22 0 C22.00586624 2.63454163 22.01173248 5.26908325 22.01777649 7.98345947 C22.07437334 32.76426725 22.14741684 57.54498725 22.23571491 82.32570267 C22.28071635 95.06689885 22.32012095 107.8080668 22.34643555 120.54931641 C22.36938044 131.65216161 22.40273905 142.75491781 22.44870156 153.85769248 C22.47268115 159.73872187 22.49137886 165.61966286 22.49761391 171.50074005 C22.50364335 177.03288492 22.52356547 182.56480346 22.55427551 188.0968647 C22.56309016 190.1302159 22.56677128 192.16359663 22.56500816 194.19696617 C22.56336378 196.96777681 22.57998303 199.73789063 22.60127258 202.50860596 C22.59642501 203.31794468 22.59157743 204.12728341 22.58658296 204.96114755 C22.6274421 208.17127843 22.78874518 210.59101629 24.27492046 213.46821213 C26.14082625 215.36301623 26.14082625 215.36301623 30 216 C30 222.6 30 229.2 30 236 C28.02 236.99 26.04 237.98 24 239 C22.72062748 241.55874503 22.87242318 243.36335834 22.86869812 246.22914124 C22.86468994 247.33796661 22.86068176 248.44679199 22.85655212 249.58921814 C22.8573452 251.42269554 22.8573452 251.42269554 22.8581543 253.29321289 C22.85282067 255.26285253 22.84748106 257.23249215 22.84191763 259.20213115 C22.83671467 261.32389806 22.83380497 263.44565876 22.83133507 265.5674305 C22.82542488 269.99335253 22.8088823 274.41919413 22.78999329 278.84507751 C22.78365547 280.36079879 22.77732985 281.87652011 22.77101612 283.39224148 C22.76785031 284.15147219 22.7646845 284.91070289 22.76142275 285.69294059 C22.71937481 295.99767179 22.6863984 306.30236652 22.67407227 316.60717773 C22.66567504 323.55593803 22.64311941 330.50450007 22.6047166 337.45316118 C22.58500429 341.12835482 22.57253499 344.80325242 22.57755089 348.47850227 C22.58308832 352.58628404 22.55771794 356.69333307 22.5300293 360.80102539 C22.53993141 362.61324837 22.53993141 362.61324837 22.55003357 364.46208191 C22.46096702 372.52433145 21.32398388 379.04161761 16.03515625 385.33984375 C15.38417969 385.86707031 14.73320312 386.39429688 14.0625 386.9375 C13.08990234 387.75541016 13.08990234 387.75541016 12.09765625 388.58984375 C7.21564162 391.87179399 2.96481395 392.26874178 -2.8125 392.125 C-3.50537109 392.11597656 -4.19824219 392.10695313 -4.91210938 392.09765625 C-6.60822395 392.07426157 -8.30415871 392.03839641 -10 392 C-9.60167969 391.46632813 -9.20335937 390.93265625 -8.79296875 390.3828125 C-8.26316406 389.63773437 -7.73335938 388.89265625 -7.1875 388.125 C-6.40439453 387.04605469 -6.40439453 387.04605469 -5.60546875 385.9453125 C-0.66728633 376.88597054 -0.56497238 367.75278011 -0.60127258 357.63693237 C-0.59582638 356.0897463 -0.58907201 354.54256438 -0.58113068 352.9953891 C-0.56316976 348.7651466 -0.5636545 344.53508023 -0.56726015 340.30480862 C-0.56788553 335.73504257 -0.55124957 331.16533484 -0.53674316 326.59559631 C-0.5139792 318.68526652 -0.50207585 310.77498069 -0.49761391 302.86462021 C-0.49114695 291.42767251 -0.46819992 279.99080423 -0.44127061 268.55388857 C-0.3980221 249.9968744 -0.36804428 231.43986357 -0.34643555 212.8828125 C-0.32542006 194.85968379 -0.29813998 176.83658245 -0.26245117 158.81347656 C-0.26025235 157.70195445 -0.25805352 156.59043233 -0.25578807 155.44522773 C-0.24471827 149.86887529 -0.23352549 144.2925231 -0.22227156 138.71617103 C-0.12911387 92.47747125 -0.05772468 46.23875657 0 0 Z " fill="#D0D8FB" transform="translate(475,105)"/>
<path d="M0 0 C0.81482346 -0.01283524 1.62964691 -0.02567047 2.46916199 -0.03889465 C3.34728043 -0.04628159 4.22539886 -0.05366852 5.13012695 -0.0612793 C6.49365044 -0.07338692 6.49365044 -0.07338692 7.88471985 -0.08573914 C9.81049702 -0.09957079 11.7362986 -0.11029706 13.66210938 -0.11816406 C16.59008071 -0.13533195 19.5169094 -0.17922069 22.44458008 -0.22338867 C24.31892076 -0.23352013 26.19327102 -0.24203482 28.06762695 -0.2487793 C28.93562424 -0.26628738 29.80362152 -0.28379547 30.69792175 -0.30183411 C37.34940491 -0.27840558 42.93239864 1.21668997 47.77075195 5.9934082 C48.3140918 6.85772461 48.3140918 6.85772461 48.8684082 7.73950195 C49.24868164 8.31829102 49.62895508 8.89708008 50.02075195 9.4934082 C53.45966016 15.85465043 52.23629192 24.41071602 52.28100586 31.48095703 C52.29753118 33.3944925 52.32477589 35.30796712 52.36303711 37.22119141 C52.41811207 39.99194085 52.43972794 42.76124584 52.4543457 45.5324707 C52.47701508 46.37859421 52.49968445 47.22471771 52.52304077 48.09648132 C52.5012026 54.30735827 50.83126228 58.34311124 46.9309082 63.17700195 C42.97797615 66.84069507 39.31928373 69.40745701 33.84008789 69.4675293 C33.04536072 69.480289 32.25063354 69.49304871 31.43182373 69.50619507 C30.58074036 69.50842072 29.72965698 69.51064636 28.8527832 69.51293945 C27.96737854 69.51959625 27.08197388 69.52625305 26.16973877 69.53311157 C24.29701816 69.54322737 22.42426158 69.54792892 20.55151367 69.54760742 C17.70470702 69.55196552 14.85947039 69.58825381 12.01293945 69.6262207 C10.18872597 69.63209233 8.36450517 69.63605941 6.5402832 69.63793945 C5.27580353 69.659496 5.27580353 69.659496 3.98577881 69.68148804 C-1.83023086 69.63716024 -6.20029665 68.42512473 -11.0690918 65.17700195 C-16.83065916 59.2638144 -17.38488658 53.62949681 -17.4050293 45.74731445 C-17.4116861 44.83875702 -17.4183429 43.93019958 -17.42520142 42.99411011 C-17.43530524 41.07609068 -17.44001914 39.15803625 -17.43969727 37.23999023 C-17.44406688 34.31866008 -17.48040024 31.39884598 -17.51831055 28.4777832 C-17.52418005 26.60929876 -17.52814855 24.74080717 -17.5300293 22.87231445 C-17.54440033 22.00542999 -17.55877136 21.13854553 -17.57357788 20.24539185 C-17.52443738 13.66321823 -16.01473396 9.3891203 -11.47143555 4.43481445 C-7.60814703 1.44720467 -4.85596318 0.06682628 0 0 Z " fill="#030303" transform="translate(77.069091796875,404.822998046875)"/>
<path d="M0 0 C0.81482346 -0.01283524 1.62964691 -0.02567047 2.46916199 -0.03889465 C3.34728043 -0.04628159 4.22539886 -0.05366852 5.13012695 -0.0612793 C6.49365044 -0.07338692 6.49365044 -0.07338692 7.88471985 -0.08573914 C9.81049702 -0.09957079 11.7362986 -0.11029706 13.66210938 -0.11816406 C16.59008071 -0.13533195 19.5169094 -0.17922069 22.44458008 -0.22338867 C24.31892076 -0.23352013 26.19327102 -0.24203482 28.06762695 -0.2487793 C28.93562424 -0.26628738 29.80362152 -0.28379547 30.69792175 -0.30183411 C37.34940491 -0.27840558 42.93239864 1.21668997 47.77075195 5.9934082 C48.3140918 6.85772461 48.3140918 6.85772461 48.8684082 7.73950195 C49.24868164 8.31829102 49.62895508 8.89708008 50.02075195 9.4934082 C53.45966016 15.85465043 52.23629192 24.41071602 52.28100586 31.48095703 C52.29753118 33.3944925 52.32477589 35.30796712 52.36303711 37.22119141 C52.41811207 39.99194085 52.43972794 42.76124584 52.4543457 45.5324707 C52.47701508 46.37859421 52.49968445 47.22471771 52.52304077 48.09648132 C52.5012026 54.30735827 50.83126228 58.34311124 46.9309082 63.17700195 C42.97797615 66.84069507 39.31928373 69.40745701 33.84008789 69.4675293 C33.04536072 69.480289 32.25063354 69.49304871 31.43182373 69.50619507 C30.58074036 69.50842072 29.72965698 69.51064636 28.8527832 69.51293945 C27.96737854 69.51959625 27.08197388 69.52625305 26.16973877 69.53311157 C24.29701816 69.54322737 22.42426158 69.54792892 20.55151367 69.54760742 C17.70470702 69.55196552 14.85947039 69.58825381 12.01293945 69.6262207 C10.18872597 69.63209233 8.36450517 69.63605941 6.5402832 69.63793945 C5.27580353 69.659496 5.27580353 69.659496 3.98577881 69.68148804 C-1.83023086 69.63716024 -6.20029665 68.42512473 -11.0690918 65.17700195 C-16.83065916 59.2638144 -17.38488658 53.62949681 -17.4050293 45.74731445 C-17.4116861 44.83875702 -17.4183429 43.93019958 -17.42520142 42.99411011 C-17.43530524 41.07609068 -17.44001914 39.15803625 -17.43969727 37.23999023 C-17.44406688 34.31866008 -17.48040024 31.39884598 -17.51831055 28.4777832 C-17.52418005 26.60929876 -17.52814855 24.74080717 -17.5300293 22.87231445 C-17.54440033 22.00542999 -17.55877136 21.13854553 -17.57357788 20.24539185 C-17.52443738 13.66321823 -16.01473396 9.3891203 -11.47143555 4.43481445 C-7.60814703 1.44720467 -4.85596318 0.06682628 0 0 Z " fill="#030303" transform="translate(77.069091796875,314.822998046875)"/>
<path d="M0 0 C0.81482346 -0.01283524 1.62964691 -0.02567047 2.46916199 -0.03889465 C3.34728043 -0.04628159 4.22539886 -0.05366852 5.13012695 -0.0612793 C6.49365044 -0.07338692 6.49365044 -0.07338692 7.88471985 -0.08573914 C9.81049702 -0.09957079 11.7362986 -0.11029706 13.66210938 -0.11816406 C16.59008071 -0.13533195 19.5169094 -0.17922069 22.44458008 -0.22338867 C24.31892076 -0.23352013 26.19327102 -0.24203482 28.06762695 -0.2487793 C28.93562424 -0.26628738 29.80362152 -0.28379547 30.69792175 -0.30183411 C37.34940491 -0.27840558 42.93239864 1.21668997 47.77075195 5.9934082 C48.3140918 6.85772461 48.3140918 6.85772461 48.8684082 7.73950195 C49.24868164 8.31829102 49.62895508 8.89708008 50.02075195 9.4934082 C53.45966016 15.85465043 52.23629192 24.41071602 52.28100586 31.48095703 C52.29753118 33.3944925 52.32477589 35.30796712 52.36303711 37.22119141 C52.41811207 39.99194085 52.43972794 42.76124584 52.4543457 45.5324707 C52.47701508 46.37859421 52.49968445 47.22471771 52.52304077 48.09648132 C52.5012026 54.30735827 50.83126228 58.34311124 46.9309082 63.17700195 C42.97797615 66.84069507 39.31928373 69.40745701 33.84008789 69.4675293 C33.04536072 69.480289 32.25063354 69.49304871 31.43182373 69.50619507 C30.58074036 69.50842072 29.72965698 69.51064636 28.8527832 69.51293945 C27.96737854 69.51959625 27.08197388 69.52625305 26.16973877 69.53311157 C24.29701816 69.54322737 22.42426158 69.54792892 20.55151367 69.54760742 C17.70470702 69.55196552 14.85947039 69.58825381 12.01293945 69.6262207 C10.18872597 69.63209233 8.36450517 69.63605941 6.5402832 69.63793945 C5.27580353 69.659496 5.27580353 69.659496 3.98577881 69.68148804 C-1.83023086 69.63716024 -6.20029665 68.42512473 -11.0690918 65.17700195 C-16.83065916 59.2638144 -17.38488658 53.62949681 -17.4050293 45.74731445 C-17.4116861 44.83875702 -17.4183429 43.93019958 -17.42520142 42.99411011 C-17.43530524 41.07609068 -17.44001914 39.15803625 -17.43969727 37.23999023 C-17.44406688 34.31866008 -17.48040024 31.39884598 -17.51831055 28.4777832 C-17.52418005 26.60929876 -17.52814855 24.74080717 -17.5300293 22.87231445 C-17.54440033 22.00542999 -17.55877136 21.13854553 -17.57357788 20.24539185 C-17.52443738 13.66321823 -16.01473396 9.3891203 -11.47143555 4.43481445 C-7.60814703 1.44720467 -4.85596318 0.06682628 0 0 Z " fill="#030303" transform="translate(77.069091796875,224.822998046875)"/>
<path d="M0 0 C0.97674807 -0.00905664 1.95349613 -0.01811328 2.95984262 -0.02744436 C4.03035523 -0.02211644 5.10086784 -0.01678851 6.20382023 -0.01129913 C7.34302121 -0.01739024 8.48222219 -0.02348134 9.65594441 -0.02975702 C13.48760079 -0.04645613 17.31892738 -0.04160124 21.15061283 -0.03681183 C23.89183453 -0.04250935 26.63303611 -0.05263977 29.37424564 -0.06247711 C36.05568045 -0.08354521 42.73702851 -0.08807119 49.41849261 -0.08628923 C54.84838084 -0.08498235 60.27824198 -0.08878194 65.70812511 -0.09621429 C67.27132529 -0.09831345 68.83452546 -0.10041105 70.39772564 -0.10250711 C71.56474209 -0.10407241 71.56474209 -0.10407241 72.75533462 -0.10566932 C87.47386682 -0.12457709 102.19234919 -0.12351979 116.9108885 -0.11669999 C130.38034244 -0.1111235 143.84960624 -0.13195347 157.31901573 -0.16506046 C171.14488464 -0.19878024 184.97066241 -0.21396798 198.79657322 -0.20934343 C206.56061148 -0.20709708 214.32447396 -0.21236604 222.08847713 -0.23723602 C228.69788728 -0.25822706 235.30702527 -0.26186319 241.9164465 -0.24293643 C245.28946112 -0.23376459 248.66155162 -0.2353774 252.03459454 -0.25329208 C255.68961622 -0.27136867 259.34327473 -0.25881959 262.99825382 -0.23834991 C264.06653571 -0.25086776 265.1348176 -0.26338561 266.23547167 -0.27628279 C271.0177457 -0.21863636 273.40060805 -0.16992865 277.35851479 2.69538879 C279.16452885 5.38311005 279.16452885 5.38311005 279.22702885 9.00811005 C278.04677527 12.75715082 277.45263491 13.45212999 274.16452885 15.38311005 C271.88453203 15.76145887 271.88453203 15.76145887 269.32905769 15.76622009 C268.35230963 15.77527673 267.37556156 15.78433337 266.36921507 15.79366446 C265.29870246 15.78833653 264.22818985 15.7830086 263.12523746 15.77751923 C261.98603649 15.78361033 260.84683551 15.78970143 259.67311329 15.79597712 C255.8414569 15.81267622 252.01013032 15.80782133 248.17844486 15.80303192 C245.43722317 15.80872944 242.69602159 15.81885986 239.95481205 15.8286972 C233.27337724 15.84976531 226.59202918 15.85429129 219.91056509 15.85250932 C214.48067685 15.85120244 209.05081571 15.85500203 203.62093258 15.86243439 C202.05773241 15.86453355 200.49453223 15.86663115 198.93133205 15.86872721 C198.15332109 15.86977073 197.37531012 15.87081426 196.57372307 15.87188941 C181.85519087 15.89079718 167.1367085 15.88973988 152.41816919 15.88292009 C138.94871525 15.87734359 125.47945146 15.89817356 112.01004196 15.93128055 C98.18417305 15.96500033 84.35839528 15.98018808 70.53248447 15.97556353 C62.76844622 15.97331717 55.00458373 15.97858614 47.24058056 16.00345612 C40.63117042 16.02444716 34.02203243 16.02808328 27.41261119 16.00915653 C24.03959657 15.99998469 20.66750608 16.0015975 17.29446316 16.01951218 C13.63944147 16.03758877 9.98578296 16.02503969 6.33080387 16.00457001 C5.26252198 16.01708786 4.19424009 16.0296057 3.09358603 16.04250288 C-1.688688 15.98485645 -4.07155035 15.93614875 -8.02945709 13.0708313 C-9.83547115 10.38311005 -9.83547115 10.38311005 -9.89797115 6.75811005 C-8.21905223 1.42507345 -5.44221065 0.01013963 0 0 Z " fill="#010101" transform="translate(172.83547115325928,404.6168899536133)"/>
<path d="M0 0 C0.97674807 -0.00905664 1.95349613 -0.01811328 2.95984262 -0.02744436 C4.03035523 -0.02211644 5.10086784 -0.01678851 6.20382023 -0.01129913 C7.34302121 -0.01739024 8.48222219 -0.02348134 9.65594441 -0.02975702 C13.48760079 -0.04645613 17.31892738 -0.04160124 21.15061283 -0.03681183 C23.89183453 -0.04250935 26.63303611 -0.05263977 29.37424564 -0.06247711 C36.05568045 -0.08354521 42.73702851 -0.08807119 49.41849261 -0.08628923 C54.84838084 -0.08498235 60.27824198 -0.08878194 65.70812511 -0.09621429 C67.27132529 -0.09831345 68.83452546 -0.10041105 70.39772564 -0.10250711 C71.56474209 -0.10407241 71.56474209 -0.10407241 72.75533462 -0.10566932 C87.47386682 -0.12457709 102.19234919 -0.12351979 116.9108885 -0.11669999 C130.38034244 -0.1111235 143.84960624 -0.13195347 157.31901573 -0.16506046 C171.14488464 -0.19878024 184.97066241 -0.21396798 198.79657322 -0.20934343 C206.56061148 -0.20709708 214.32447396 -0.21236604 222.08847713 -0.23723602 C228.69788728 -0.25822706 235.30702527 -0.26186319 241.9164465 -0.24293643 C245.28946112 -0.23376459 248.66155162 -0.2353774 252.03459454 -0.25329208 C255.68961622 -0.27136867 259.34327473 -0.25881959 262.99825382 -0.23834991 C264.06653571 -0.25086776 265.1348176 -0.26338561 266.23547167 -0.27628279 C271.0177457 -0.21863636 273.40060805 -0.16992865 277.35851479 2.69538879 C279.16452885 5.38311005 279.16452885 5.38311005 279.22702885 9.00811005 C278.04677527 12.75715082 277.45263491 13.45212999 274.16452885 15.38311005 C271.88453203 15.76145887 271.88453203 15.76145887 269.32905769 15.76622009 C268.35230963 15.77527673 267.37556156 15.78433337 266.36921507 15.79366446 C265.29870246 15.78833653 264.22818985 15.7830086 263.12523746 15.77751923 C261.98603649 15.78361033 260.84683551 15.78970143 259.67311329 15.79597712 C255.8414569 15.81267622 252.01013032 15.80782133 248.17844486 15.80303192 C245.43722317 15.80872944 242.69602159 15.81885986 239.95481205 15.8286972 C233.27337724 15.84976531 226.59202918 15.85429129 219.91056509 15.85250932 C214.48067685 15.85120244 209.05081571 15.85500203 203.62093258 15.86243439 C202.05773241 15.86453355 200.49453223 15.86663115 198.93133205 15.86872721 C198.15332109 15.86977073 197.37531012 15.87081426 196.57372307 15.87188941 C181.85519087 15.89079718 167.1367085 15.88973988 152.41816919 15.88292009 C138.94871525 15.87734359 125.47945146 15.89817356 112.01004196 15.93128055 C98.18417305 15.96500033 84.35839528 15.98018808 70.53248447 15.97556353 C62.76844622 15.97331717 55.00458373 15.97858614 47.24058056 16.00345612 C40.63117042 16.02444716 34.02203243 16.02808328 27.41261119 16.00915653 C24.03959657 15.99998469 20.66750608 16.0015975 17.29446316 16.01951218 C13.63944147 16.03758877 9.98578296 16.02503969 6.33080387 16.00457001 C5.26252198 16.01708786 4.19424009 16.0296057 3.09358603 16.04250288 C-1.688688 15.98485645 -4.07155035 15.93614875 -8.02945709 13.0708313 C-9.83547115 10.38311005 -9.83547115 10.38311005 -9.89797115 6.75811005 C-8.21905223 1.42507345 -5.44221065 0.01013963 0 0 Z " fill="#010101" transform="translate(172.83547115325928,314.6168899536133)"/>
<path d="M0 0 C0.97674807 -0.00905664 1.95349613 -0.01811328 2.95984262 -0.02744436 C4.03035523 -0.02211644 5.10086784 -0.01678851 6.20382023 -0.01129913 C7.34302121 -0.01739024 8.48222219 -0.02348134 9.65594441 -0.02975702 C13.48760079 -0.04645613 17.31892738 -0.04160124 21.15061283 -0.03681183 C23.89183453 -0.04250935 26.63303611 -0.05263977 29.37424564 -0.06247711 C36.05568045 -0.08354521 42.73702851 -0.08807119 49.41849261 -0.08628923 C54.84838084 -0.08498235 60.27824198 -0.08878194 65.70812511 -0.09621429 C67.27132529 -0.09831345 68.83452546 -0.10041105 70.39772564 -0.10250711 C71.56474209 -0.10407241 71.56474209 -0.10407241 72.75533462 -0.10566932 C87.47386682 -0.12457709 102.19234919 -0.12351979 116.9108885 -0.11669999 C130.38034244 -0.1111235 143.84960624 -0.13195347 157.31901573 -0.16506046 C171.14488464 -0.19878024 184.97066241 -0.21396798 198.79657322 -0.20934343 C206.56061148 -0.20709708 214.32447396 -0.21236604 222.08847713 -0.23723602 C228.69788728 -0.25822706 235.30702527 -0.26186319 241.9164465 -0.24293643 C245.28946112 -0.23376459 248.66155162 -0.2353774 252.03459454 -0.25329208 C255.68961622 -0.27136867 259.34327473 -0.25881959 262.99825382 -0.23834991 C264.06653571 -0.25086776 265.1348176 -0.26338561 266.23547167 -0.27628279 C271.0177457 -0.21863636 273.40060805 -0.16992865 277.35851479 2.69538879 C279.16452885 5.38311005 279.16452885 5.38311005 279.22702885 9.00811005 C278.04677527 12.75715082 277.45263491 13.45212999 274.16452885 15.38311005 C271.88453203 15.76145887 271.88453203 15.76145887 269.32905769 15.76622009 C268.35230963 15.77527673 267.37556156 15.78433337 266.36921507 15.79366446 C265.29870246 15.78833653 264.22818985 15.7830086 263.12523746 15.77751923 C261.98603649 15.78361033 260.84683551 15.78970143 259.67311329 15.79597712 C255.8414569 15.81267622 252.01013032 15.80782133 248.17844486 15.80303192 C245.43722317 15.80872944 242.69602159 15.81885986 239.95481205 15.8286972 C233.27337724 15.84976531 226.59202918 15.85429129 219.91056509 15.85250932 C214.48067685 15.85120244 209.05081571 15.85500203 203.62093258 15.86243439 C202.05773241 15.86453355 200.49453223 15.86663115 198.93133205 15.86872721 C198.15332109 15.86977073 197.37531012 15.87081426 196.57372307 15.87188941 C181.85519087 15.89079718 167.1367085 15.88973988 152.41816919 15.88292009 C138.94871525 15.87734359 125.47945146 15.89817356 112.01004196 15.93128055 C98.18417305 15.96500033 84.35839528 15.98018808 70.53248447 15.97556353 C62.76844622 15.97331717 55.00458373 15.97858614 47.24058056 16.00345612 C40.63117042 16.02444716 34.02203243 16.02808328 27.41261119 16.00915653 C24.03959657 15.99998469 20.66750608 16.0015975 17.29446316 16.01951218 C13.63944147 16.03758877 9.98578296 16.02503969 6.33080387 16.00457001 C5.26252198 16.01708786 4.19424009 16.0296057 3.09358603 16.04250288 C-1.688688 15.98485645 -4.07155035 15.93614875 -8.02945709 13.0708313 C-9.83547115 10.38311005 -9.83547115 10.38311005 -9.89797115 6.75811005 C-8.21905223 1.42507345 -5.44221065 0.01013963 0 0 Z " fill="#010101" transform="translate(172.83547115325928,224.61688995361328)"/>
<path d="M0 0 C0.83293455 -0.0060911 1.6658691 -0.01218221 2.5240441 -0.01845789 C5.31927307 -0.03512699 8.11404845 -0.03030654 10.90931702 -0.0255127 C12.91162592 -0.03285073 14.91393059 -0.04143618 16.91622925 -0.05117798 C22.35834064 -0.07342998 27.80030079 -0.07632283 33.24245143 -0.07443047 C37.78288929 -0.07431094 42.3232949 -0.08286766 46.86372381 -0.09120798 C57.5736048 -0.11045513 68.28340784 -0.113321 78.99330139 -0.10656738 C90.04855968 -0.09992439 101.1034845 -0.12279848 112.15867513 -0.15988111 C121.64497459 -0.19054874 131.13116661 -0.20194136 140.61751467 -0.1980443 C146.28565894 -0.19597387 151.95354374 -0.20150161 157.62164116 -0.22593689 C162.95118758 -0.248153 168.28019069 -0.24636886 173.6097393 -0.22600937 C175.56690388 -0.22259029 177.52410467 -0.22772688 179.48122025 -0.24199295 C182.15112288 -0.26011348 184.81916821 -0.2474909 187.48901367 -0.22705078 C188.65370482 -0.24582755 188.65370482 -0.24582755 189.84192508 -0.26498365 C193.80611116 -0.19981378 195.64128384 0.2665951 198.82402897 2.70668793 C200.80799866 5.39440918 200.80799866 5.39440918 200.87049866 9.01940918 C199.66951488 12.83429884 199.25104367 13.54488978 195.80799866 15.39440918 C193.00287684 15.68770093 190.42056383 15.80800763 187.61599731 15.78881836 C186.78306276 15.79490946 185.95012821 15.80100057 185.09195322 15.80727625 C182.29672425 15.82394535 179.50194886 15.8191249 176.7066803 15.81433105 C174.70437139 15.82166909 172.70206672 15.83025454 170.69976807 15.83999634 C165.25765667 15.86224834 159.81569653 15.86514119 154.37354589 15.86324883 C149.83310802 15.8631293 145.29270241 15.87168602 140.7522735 15.88002634 C130.04239251 15.89927349 119.33258947 15.90213936 108.62269592 15.89538574 C97.56743764 15.88874275 86.51251282 15.91161684 75.45732218 15.94869947 C65.97102272 15.9793671 56.4848307 15.99075972 46.99848264 15.98686266 C41.33033838 15.98479223 35.66245358 15.99031997 29.99435616 16.01475525 C24.66480973 16.03697136 19.33580662 16.03518722 14.00625801 16.01482773 C12.04909343 16.01140865 10.09189264 16.01654524 8.13477707 16.03081131 C5.46487443 16.04893184 2.79682911 16.03630926 0.12698364 16.01586914 C-1.03770751 16.03464591 -1.03770751 16.03464591 -2.22592777 16.05380201 C-6.19011384 15.98863214 -8.02528653 15.52222326 -11.20803165 13.08213043 C-13.19200134 10.39440918 -13.19200134 10.39440918 -13.25450134 6.76940918 C-11.08163741 -0.13262919 -6.52477501 -0.0446435 0 0 Z " fill="#010101" transform="translate(176.19200134277344,434.6055908203125)"/>
<path d="M0 0 C0.83293455 -0.0060911 1.6658691 -0.01218221 2.5240441 -0.01845789 C5.31927307 -0.03512699 8.11404845 -0.03030654 10.90931702 -0.0255127 C12.91162592 -0.03285073 14.91393059 -0.04143618 16.91622925 -0.05117798 C22.35834064 -0.07342998 27.80030079 -0.07632283 33.24245143 -0.07443047 C37.78288929 -0.07431094 42.3232949 -0.08286766 46.86372381 -0.09120798 C57.5736048 -0.11045513 68.28340784 -0.113321 78.99330139 -0.10656738 C90.04855968 -0.09992439 101.1034845 -0.12279848 112.15867513 -0.15988111 C121.64497459 -0.19054874 131.13116661 -0.20194136 140.61751467 -0.1980443 C146.28565894 -0.19597387 151.95354374 -0.20150161 157.62164116 -0.22593689 C162.95118758 -0.248153 168.28019069 -0.24636886 173.6097393 -0.22600937 C175.56690388 -0.22259029 177.52410467 -0.22772688 179.48122025 -0.24199295 C182.15112288 -0.26011348 184.81916821 -0.2474909 187.48901367 -0.22705078 C188.65370482 -0.24582755 188.65370482 -0.24582755 189.84192508 -0.26498365 C193.80611116 -0.19981378 195.64128384 0.2665951 198.82402897 2.70668793 C200.80799866 5.39440918 200.80799866 5.39440918 200.87049866 9.01940918 C199.66951488 12.83429884 199.25104367 13.54488978 195.80799866 15.39440918 C193.00287684 15.68770093 190.42056383 15.80800763 187.61599731 15.78881836 C186.78306276 15.79490946 185.95012821 15.80100057 185.09195322 15.80727625 C182.29672425 15.82394535 179.50194886 15.8191249 176.7066803 15.81433105 C174.70437139 15.82166909 172.70206672 15.83025454 170.69976807 15.83999634 C165.25765667 15.86224834 159.81569653 15.86514119 154.37354589 15.86324883 C149.83310802 15.8631293 145.29270241 15.87168602 140.7522735 15.88002634 C130.04239251 15.89927349 119.33258947 15.90213936 108.62269592 15.89538574 C97.56743764 15.88874275 86.51251282 15.91161684 75.45732218 15.94869947 C65.97102272 15.9793671 56.4848307 15.99075972 46.99848264 15.98686266 C41.33033838 15.98479223 35.66245358 15.99031997 29.99435616 16.01475525 C24.66480973 16.03697136 19.33580662 16.03518722 14.00625801 16.01482773 C12.04909343 16.01140865 10.09189264 16.01654524 8.13477707 16.03081131 C5.46487443 16.04893184 2.79682911 16.03630926 0.12698364 16.01586914 C-1.03770751 16.03464591 -1.03770751 16.03464591 -2.22592777 16.05380201 C-6.19011384 15.98863214 -8.02528653 15.52222326 -11.20803165 13.08213043 C-13.19200134 10.39440918 -13.19200134 10.39440918 -13.25450134 6.76940918 C-11.08163741 -0.13262919 -6.52477501 -0.0446435 0 0 Z " fill="#010101" transform="translate(176.19200134277344,344.6055908203125)"/>
<path d="M0 0 C0.83293455 -0.0060911 1.6658691 -0.01218221 2.5240441 -0.01845789 C5.31927307 -0.03512699 8.11404845 -0.03030654 10.90931702 -0.0255127 C12.91162592 -0.03285073 14.91393059 -0.04143618 16.91622925 -0.05117798 C22.35834064 -0.07342998 27.80030079 -0.07632283 33.24245143 -0.07443047 C37.78288929 -0.07431094 42.3232949 -0.08286766 46.86372381 -0.09120798 C57.5736048 -0.11045513 68.28340784 -0.113321 78.99330139 -0.10656738 C90.04855968 -0.09992439 101.1034845 -0.12279848 112.15867513 -0.15988111 C121.64497459 -0.19054874 131.13116661 -0.20194136 140.61751467 -0.1980443 C146.28565894 -0.19597387 151.95354374 -0.20150161 157.62164116 -0.22593689 C162.95118758 -0.248153 168.28019069 -0.24636886 173.6097393 -0.22600937 C175.56690388 -0.22259029 177.52410467 -0.22772688 179.48122025 -0.24199295 C182.15112288 -0.26011348 184.81916821 -0.2474909 187.48901367 -0.22705078 C188.65370482 -0.24582755 188.65370482 -0.24582755 189.84192508 -0.26498365 C193.80611116 -0.19981378 195.64128384 0.2665951 198.82402897 2.70668793 C200.80799866 5.39440918 200.80799866 5.39440918 200.87049866 9.01940918 C199.66951488 12.83429884 199.25104367 13.54488978 195.80799866 15.39440918 C193.00287684 15.68770093 190.42056383 15.80800763 187.61599731 15.78881836 C186.78306276 15.79490946 185.95012821 15.80100057 185.09195322 15.80727625 C182.29672425 15.82394535 179.50194886 15.8191249 176.7066803 15.81433105 C174.70437139 15.82166909 172.70206672 15.83025454 170.69976807 15.83999634 C165.25765667 15.86224834 159.81569653 15.86514119 154.37354589 15.86324883 C149.83310802 15.8631293 145.29270241 15.87168602 140.7522735 15.88002634 C130.04239251 15.89927349 119.33258947 15.90213936 108.62269592 15.89538574 C97.56743764 15.88874275 86.51251282 15.91161684 75.45732218 15.94869947 C65.97102272 15.9793671 56.4848307 15.99075972 46.99848264 15.98686266 C41.33033838 15.98479223 35.66245358 15.99031997 29.99435616 16.01475525 C24.66480973 16.03697136 19.33580662 16.03518722 14.00625801 16.01482773 C12.04909343 16.01140865 10.09189264 16.01654524 8.13477707 16.03081131 C5.46487443 16.04893184 2.79682911 16.03630926 0.12698364 16.01586914 C-1.03770751 16.03464591 -1.03770751 16.03464591 -2.22592777 16.05380201 C-6.19011384 15.98863214 -8.02528653 15.52222326 -11.20803165 13.08213043 C-13.19200134 10.39440918 -13.19200134 10.39440918 -13.25450134 6.76940918 C-11.08163741 -0.13262919 -6.52477501 -0.0446435 0 0 Z " fill="#010101" transform="translate(176.19200134277344,254.6055908203125)"/>
<path d="M0 0 C4.32971293 3.5821877 6.28433314 7.30827364 8.0859375 12.51171875 C8.48039062 13.59447838 8.48039062 13.59447838 8.8828125 14.69911194 C9.72679426 17.02403899 10.55128406 19.35532469 11.375 21.6875 C12.23403772 24.07816814 13.09712042 26.46734858 13.96060181 28.85641479 C14.52605301 30.42183246 15.08985011 31.98784865 15.65194702 33.55447388 C17.16613832 37.76122714 18.73833219 41.9297764 20.4375 46.06640625 C20.77346191 46.88471924 21.10942383 47.70303223 21.45556641 48.54614258 C22.04390646 49.95637774 22.64407573 51.36177212 23.25927734 52.76049805 C25.0918546 57.19439824 25.1288732 60.35270984 24 65 C21.74582958 67.5881216 20.39479021 67.94242643 17 68.4375 C14 68 14 68 11.8125 66.5 C10 64 10 64 7 56 C-0.26 56 -7.52 56 -15 56 C-16.32 58.97 -17.64 61.94 -19 65 C-22 68 -22 68 -24.875 68.5 C-28 68 -28 68 -30.9375 65.9375 C-33 63 -33 63 -32.8269043 59.87524414 C-31.87351412 55.40723048 -30.46145902 51.31751978 -28.83203125 47.05859375 C-28.51473557 46.21386002 -28.19743988 45.36912628 -27.87052917 44.49879456 C-27.19887435 42.7149654 -26.52378239 40.93242707 -25.84545898 39.15112305 C-24.82593509 36.4727945 -23.81731299 33.79056835 -22.81054688 31.10742188 C-20.90868731 26.05778194 -18.96940478 21.02366561 -17 16 C-16.71525818 15.27145813 -16.43051636 14.54291626 -16.137146 13.79229736 C-15.36037635 11.82506071 -14.56563906 9.86642903 -13.76171875 7.91015625 C-13.32174561 6.83000244 -12.88177246 5.74984863 -12.4284668 4.63696289 C-9.32486931 -1.09230672 -6.15162166 -1.72677099 0 0 Z " fill="#040404" transform="translate(221,131)"/>
<path d="M0 0 C4.79315826 3.36798357 4.79315826 3.36798357 6.125 7.4375 C6 11 6 11 4 14 C1 16 1 16 -2.3125 16.0625 C-5.91686105 15.02395529 -8.79362458 13.61374175 -12.078125 11.86328125 C-14.83601185 10.62447435 -17.03298204 10.58599749 -20 11 C-20.99 11.66 -21.98 12.32 -23 13 C-23 14.32 -23 15.64 -23 17 C-22.39526855 17.24645264 -21.79053711 17.49290527 -21.16748047 17.74682617 C-18.39862099 18.88262579 -15.63689843 20.03488234 -12.875 21.1875 C-11.44800781 21.76854492 -11.44800781 21.76854492 -9.9921875 22.36132812 C-2.19516396 25.63716093 3.73567418 28.90174092 7.3046875 36.89453125 C8.98775423 41.9910086 8.58481296 46.23544754 6.4375 51.125 C3.32686617 56.70004443 -1.77049355 61.25702014 -7.79296875 63.52734375 C-17.95448848 65.70352762 -26.40170853 64.13662119 -35.03125 58.7265625 C-38.00637376 56.71469602 -39.99451946 55.00822081 -42 52 C-42.4375 48.5625 -42.4375 48.5625 -42 45 C-39.62482219 42.3533733 -38.14623841 41.13354234 -34.5859375 40.71875 C-31.47303534 41.05731338 -30.21112136 41.96571261 -27.8125 43.9375 C-22.80618329 47.98658598 -19.43646011 48.6658407 -13 48 C-10.02015833 46.66829691 -10.02015833 46.66829691 -8 45 C-8.34588275 42.49235004 -8.69462297 41.27980358 -10.5859375 39.546875 C-14.25154461 37.19803938 -18.27370249 35.83897547 -22.3359375 34.33789062 C-29.47699308 31.60960427 -35.46354347 28.07291305 -39 21 C-39.49756886 15.55121309 -39.76085647 10.64344998 -37.4375 5.625 C-26.13067021 -6.55158593 -14.78294522 -7.94557169 0 0 Z " fill="#040505" transform="translate(303,135)"/>
<path d="M0 0 C3.5868642 1.22106015 4.87123342 1.78580754 6.9375 5 C7.56511386 8.66020182 7.80961665 12.29138294 7.9375 16 C9.08378335 15.00051588 10.22948853 14.00036869 11.375 13 C12.10332031 12.36964844 12.83164062 11.73929688 13.58203125 11.08984375 C15.1727417 9.6785169 16.73254196 8.23168214 18.26171875 6.75390625 C19.02097656 6.03074219 19.78023438 5.30757812 20.5625 4.5625 C21.25601562 3.88316406 21.94953125 3.20382813 22.6640625 2.50390625 C25.62710242 0.54381971 27.44886208 0.57855381 30.9375 1 C33.875 3.0625 33.875 3.0625 35.9375 6 C36.06046197 9.60542053 35.71597406 12.01415338 33.44360352 14.8918457 C31.44679707 16.8932881 29.38122336 18.76749443 27.25 20.625 C26.54166016 21.26695312 25.83332031 21.90890625 25.10351562 22.5703125 C21.13221801 26.14924737 17.06689758 29.6054401 12.9375 33 C17.84638351 39.03091403 23.29842987 44.44872444 28.81640625 49.9140625 C29.60277466 50.69789307 29.60277466 50.69789307 30.4050293 51.49755859 C31.84348262 52.90782492 33.3229175 54.27594309 34.8046875 55.640625 C37.00800337 58.07799274 37.60700256 58.91492306 37.5 62.125 C36.9375 66 36.9375 66 35.3125 68 C32.03898517 69.37832203 30.48011375 69.68127187 26.9375 69 C23.94309351 67.00592271 21.48193284 64.53147308 18.9375 62 C18.46489746 61.53432617 17.99229492 61.06865234 17.50537109 60.58886719 C14.28901474 57.41885602 11.10444361 54.2193379 7.9375 51 C7.91623047 52.32064453 7.91623047 52.32064453 7.89453125 53.66796875 C7.50556654 63.13978495 7.50556654 63.13978495 4.75 67.3125 C1.39773078 69.32386153 -0.22375101 69.73507959 -4.0625 69 C-6.81561338 66.87360923 -7.93474811 65.68755506 -8.5771637 62.23010254 C-8.58336227 61.16739136 -8.58956085 60.10468018 -8.59594727 59.00976562 C-8.6117836 57.80171265 -8.62761993 56.59365967 -8.64393616 55.34899902 C-8.63897629 54.04789185 -8.63401642 52.74678467 -8.62890625 51.40625 C-8.6341429 50.05391003 -8.64041954 48.70157373 -8.64768982 47.34924316 C-8.65808847 44.51797268 -8.65354062 41.68720496 -8.63891602 38.85595703 C-8.62172052 35.23055585 -8.64523213 31.60673844 -8.68040562 27.98151398 C-8.70238257 25.18985527 -8.70093789 22.3985755 -8.6926403 19.6068573 C-8.69142328 17.62152979 -8.71135331 15.63622579 -8.73158264 13.65100098 C-8.71904953 12.442948 -8.70651642 11.23489502 -8.69360352 9.99023438 C-8.69264175 8.92752319 -8.69167999 7.86481201 -8.69068909 6.76989746 C-8.0625 4 -8.0625 4 -5.71446228 1.62561035 C-3.0625 0 -3.0625 0 0 0 Z " fill="#030303" transform="translate(331.0625,130)"/>
<path d="M0 0 C4.95321872 3.29297319 9.83923222 8.47501077 11.109375 14.40234375 C11.89701432 21.47859541 11.08913529 27.39935337 7.109375 33.40234375 C2.42439768 38.62559505 -2.11527686 41.89415636 -9.203125 42.6484375 C-15.31006951 42.9556466 -19.93505597 42.07541562 -24.890625 38.40234375 C-30.92589954 32.80751331 -33.84882657 27.81279142 -34.265625 19.52734375 C-34.0970254 13.27979189 -32.31221339 8.96548637 -28.01953125 4.421875 C-19.65484591 -3.24707092 -10.46782745 -5.21535375 0 0 Z " fill="#010101" transform="translate(123.890625,32.59765625)"/>
<path d="M0 0 C4.95321872 3.29297319 9.83923222 8.47501077 11.109375 14.40234375 C11.89701432 21.47859541 11.08913529 27.39935337 7.109375 33.40234375 C2.42439768 38.62559505 -2.11527686 41.89415636 -9.203125 42.6484375 C-15.31006951 42.9556466 -19.93505597 42.07541562 -24.890625 38.40234375 C-30.92589954 32.80751331 -33.84882657 27.81279142 -34.265625 19.52734375 C-34.0970254 13.27979189 -32.31221339 8.96548637 -28.01953125 4.421875 C-19.65484591 -3.24707092 -10.46782745 -5.21535375 0 0 Z " fill="#020101" transform="translate(63.890625,32.59765625)"/>
<path d="M0 0 C4.95321872 3.29297319 9.83923222 8.47501077 11.109375 14.40234375 C11.89701432 21.47859541 11.08913529 27.39935337 7.109375 33.40234375 C2.42439768 38.62559505 -2.11527686 41.89415636 -9.203125 42.6484375 C-15.31006951 42.9556466 -19.93505597 42.07541562 -24.890625 38.40234375 C-30.92589954 32.80751331 -33.84882657 27.81279142 -34.265625 19.52734375 C-34.0970254 13.27979189 -32.31221339 8.96548637 -28.01953125 4.421875 C-19.65484591 -3.24707092 -10.46782745 -5.21535375 0 0 Z " fill="#010101" transform="translate(183.890625,32.59765625)"/>
<path d="M0 0 C0.77602066 0.00202423 1.55204132 0.00404846 2.35157776 0.00613403 C3.14447708 0.00517731 3.9373764 0.00422058 4.75430298 0.00323486 C6.43475931 0.00255302 8.11521826 0.00440757 9.79566956 0.00857544 C12.37230846 0.01391663 14.94877249 0.00863425 17.52540588 0.00222778 C19.15496356 0.0028887 20.78452113 0.00417015 22.41407776 0.00613403 C23.18807419 0.0041098 23.96207062 0.00208557 24.75952148 0 C30.21932235 0.0239907 30.21932235 0.0239907 32.44923401 1.13894653 C32.49859558 6.22926409 32.53493506 11.31944296 32.55909729 16.40994263 C32.56916777 18.14238918 32.5828249 19.87481869 32.60011292 21.60720825 C32.62431563 24.09439292 32.6357064 26.58135329 32.64454651 29.06863403 C32.65486908 29.84576752 32.66519165 30.622901 32.67582703 31.42358398 C32.67622672 33.33020147 32.57155541 35.23625689 32.44923401 37.13894653 C29.8948965 39.69328405 28.24189517 39.37625447 24.75952148 39.39118958 C23.98552505 39.38400406 23.21152863 39.37681854 22.41407776 39.36941528 C21.22329369 39.36872795 21.22329369 39.36872795 20.00845337 39.36802673 C18.32976284 39.36500418 16.65107511 39.35711778 14.97242737 39.34475708 C12.39363242 39.32649538 9.81519624 39.3242474 7.23634338 39.32449341 C5.60808505 39.31957849 3.97982916 39.31375029 2.35157776 39.30691528 C1.18754677 39.30524605 1.18754677 39.30524605 0 39.30354309 C-5.43471592 39.2549966 -5.43471592 39.2549966 -6.55076599 38.13894653 C-6.65176087 35.41170375 -6.69047128 32.7103213 -6.68357849 29.98269653 C-6.68453522 29.16522949 -6.68549194 28.34776245 -6.68647766 27.50552368 C-6.68715944 25.77379276 -6.68530528 24.04205929 -6.68113708 22.31033325 C-6.67578878 19.65028171 -6.68108211 16.99039903 -6.68748474 14.33035278 C-6.68682396 12.65196699 -6.6855428 10.97358131 -6.68357849 9.29519653 C-6.68560272 8.49416504 -6.68762695 7.69313354 -6.68971252 6.86782837 C-6.6617799 0.33284398 -6.55239911 0.02891872 0 0 Z " fill="#B0C2F4" transform="translate(81.55076599121094,419.8610534667969)"/>
<path d="M0 0 C0.77602066 0.00202423 1.55204132 0.00404846 2.35157776 0.00613403 C3.14447708 0.00517731 3.9373764 0.00422058 4.75430298 0.00323486 C6.43475931 0.00255302 8.11521826 0.00440757 9.79566956 0.00857544 C12.37230846 0.01391663 14.94877249 0.00863425 17.52540588 0.00222778 C19.15496356 0.0028887 20.78452113 0.00417015 22.41407776 0.00613403 C23.18807419 0.0041098 23.96207062 0.00208557 24.75952148 0 C30.21932235 0.0239907 30.21932235 0.0239907 32.44923401 1.13894653 C32.49859558 6.22926409 32.53493506 11.31944296 32.55909729 16.40994263 C32.56916777 18.14238918 32.5828249 19.87481869 32.60011292 21.60720825 C32.62431563 24.09439292 32.6357064 26.58135329 32.64454651 29.06863403 C32.65486908 29.84576752 32.66519165 30.622901 32.67582703 31.42358398 C32.67622672 33.33020147 32.57155541 35.23625689 32.44923401 37.13894653 C29.8948965 39.69328405 28.24189517 39.37625447 24.75952148 39.39118958 C23.98552505 39.38400406 23.21152863 39.37681854 22.41407776 39.36941528 C21.22329369 39.36872795 21.22329369 39.36872795 20.00845337 39.36802673 C18.32976284 39.36500418 16.65107511 39.35711778 14.97242737 39.34475708 C12.39363242 39.32649538 9.81519624 39.3242474 7.23634338 39.32449341 C5.60808505 39.31957849 3.97982916 39.31375029 2.35157776 39.30691528 C1.18754677 39.30524605 1.18754677 39.30524605 0 39.30354309 C-5.43471592 39.2549966 -5.43471592 39.2549966 -6.55076599 38.13894653 C-6.65176087 35.41170375 -6.69047128 32.7103213 -6.68357849 29.98269653 C-6.68453522 29.16522949 -6.68549194 28.34776245 -6.68647766 27.50552368 C-6.68715944 25.77379276 -6.68530528 24.04205929 -6.68113708 22.31033325 C-6.67578878 19.65028171 -6.68108211 16.99039903 -6.68748474 14.33035278 C-6.68682396 12.65196699 -6.6855428 10.97358131 -6.68357849 9.29519653 C-6.68560272 8.49416504 -6.68762695 7.69313354 -6.68971252 6.86782837 C-6.6617799 0.33284398 -6.55239911 0.02891872 0 0 Z " fill="#B0C2F4" transform="translate(81.55076599121094,329.8610534667969)"/>
<path d="M0 0 C0.77602066 0.00202423 1.55204132 0.00404846 2.35157776 0.00613403 C3.14447708 0.00517731 3.9373764 0.00422058 4.75430298 0.00323486 C6.43475931 0.00255302 8.11521826 0.00440757 9.79566956 0.00857544 C12.37230846 0.01391663 14.94877249 0.00863425 17.52540588 0.00222778 C19.15496356 0.0028887 20.78452113 0.00417015 22.41407776 0.00613403 C23.18807419 0.0041098 23.96207062 0.00208557 24.75952148 0 C30.21932235 0.0239907 30.21932235 0.0239907 32.44923401 1.13894653 C32.49859558 6.22926409 32.53493506 11.31944296 32.55909729 16.40994263 C32.56916777 18.14238918 32.5828249 19.87481869 32.60011292 21.60720825 C32.62431563 24.09439292 32.6357064 26.58135329 32.64454651 29.06863403 C32.65486908 29.84576752 32.66519165 30.622901 32.67582703 31.42358398 C32.67622672 33.33020147 32.57155541 35.23625689 32.44923401 37.13894653 C29.8948965 39.69328405 28.24189517 39.37625447 24.75952148 39.39118958 C23.98552505 39.38400406 23.21152863 39.37681854 22.41407776 39.36941528 C21.22329369 39.36872795 21.22329369 39.36872795 20.00845337 39.36802673 C18.32976284 39.36500418 16.65107511 39.35711778 14.97242737 39.34475708 C12.39363242 39.32649538 9.81519624 39.3242474 7.23634338 39.32449341 C5.60808505 39.31957849 3.97982916 39.31375029 2.35157776 39.30691528 C1.18754677 39.30524605 1.18754677 39.30524605 0 39.30354309 C-5.43471592 39.2549966 -5.43471592 39.2549966 -6.55076599 38.13894653 C-6.65176087 35.41170375 -6.69047128 32.7103213 -6.68357849 29.98269653 C-6.68453522 29.16522949 -6.68549194 28.34776245 -6.68647766 27.50552368 C-6.68715944 25.77379276 -6.68530528 24.04205929 -6.68113708 22.31033325 C-6.67578878 19.65028171 -6.68108211 16.99039903 -6.68748474 14.33035278 C-6.68682396 12.65196699 -6.6855428 10.97358131 -6.68357849 9.29519653 C-6.68560272 8.49416504 -6.68762695 7.69313354 -6.68971252 6.86782837 C-6.6617799 0.33284398 -6.55239911 0.02891872 0 0 Z " fill="#B0C2F4" transform="translate(81.55076599121094,239.86105346679688)"/>
<path d="M0 0 C0.73573242 -0.00619858 1.47146484 -0.01239716 2.22949219 -0.01878357 C3.77928347 -0.02586226 5.3291511 -0.02274174 6.87890625 -0.01000977 C9.24361593 0.00386878 11.6043735 -0.03024806 13.96875 -0.06835938 C15.47916763 -0.0693106 16.98959019 -0.06745159 18.5 -0.0625 C19.2022168 -0.07575821 19.90443359 -0.08901642 20.62792969 -0.10267639 C24.49023777 -0.02979547 26.14142192 0.47996623 29.19921875 2.91430664 C31.25 5.56640625 31.25 5.56640625 31.8125 8.62890625 C31.25 11.56640625 31.25 11.56640625 29.9375 13.94140625 C26.77713359 15.85232548 25.22434143 15.73734609 21.58203125 15.66796875 C20.58534424 15.65330566 19.58865723 15.63864258 18.56176758 15.62353516 C17.41744263 15.59525635 17.41744263 15.59525635 16.25 15.56640625 C16.25888245 16.18392761 16.26776489 16.80144897 16.2769165 17.43768311 C16.36536919 23.86135609 16.42572569 30.28485627 16.46972656 36.70898438 C16.48984936 39.10684231 16.51715059 41.50465113 16.55175781 43.90234375 C16.6002449 47.34777948 16.62296241 50.79256677 16.640625 54.23828125 C16.66127014 55.31132507 16.68191528 56.3843689 16.70318604 57.4899292 C16.70348816 58.49066467 16.70379028 59.49140015 16.70410156 60.52246094 C16.71298401 61.40182312 16.72186646 62.2811853 16.73101807 63.18719482 C16.08382698 66.38833117 14.78811919 67.57343775 12.25 69.56640625 C8.75 70.12890625 8.75 70.12890625 5.25 69.56640625 C2.64294167 67.38660614 1.40360381 65.61470998 0.90612793 62.21957397 C0.78605097 59.25784174 0.80088205 56.32298461 0.859375 53.359375 C0.86503479 52.27884354 0.87069458 51.19831207 0.87652588 50.08503723 C0.89887957 46.64087236 0.94907609 43.1977556 1 39.75390625 C1.02006621 37.41603067 1.03831677 35.07813875 1.0546875 32.74023438 C1.09874105 27.01526864 1.16564379 21.29091233 1.25 15.56640625 C0.4878418 15.59105957 -0.27431641 15.61571289 -1.05957031 15.64111328 C-2.05569336 15.66028809 -3.05181641 15.67946289 -4.078125 15.69921875 C-5.0671582 15.72387207 -6.05619141 15.74852539 -7.07519531 15.77392578 C-9.75 15.56640625 -9.75 15.56640625 -12.5 13.44140625 C-14.06687881 9.83758499 -14.08533516 8.25821523 -12.75 4.56640625 C-8.81929564 0.51079325 -5.43047215 -0.03835629 0 0 Z " fill="#040405" transform="translate(156.75,129.43359375)"/>
<path d="M0 0 C5.28 0 10.56 0 16 0 C16 12.21 16 24.42 16 37 C10.72 37 5.44 37 0 37 C0 24.79 0 12.58 0 0 Z " fill="#D0D8FB" transform="translate(75,421)"/>
<path d="M0 0 C5.28 0 10.56 0 16 0 C16 12.21 16 24.42 16 37 C10.72 37 5.44 37 0 37 C0 24.79 0 12.58 0 0 Z " fill="#D0D8FB" transform="translate(75,331)"/>
<path d="M0 0 C5.28 0 10.56 0 16 0 C16 12.21 16 24.42 16 37 C10.72 37 5.44 37 0 37 C0 24.79 0 12.58 0 0 Z " fill="#D0D8FB" transform="translate(75,241)"/>
<path d="M0 0 C2.9375 2.0625 2.9375 2.0625 5 5 C5.06625411 8.8427383 4.81899419 10.99200716 2.375 14 C-1.11581787 15.46981805 -3.39148956 14.98413921 -7 14 C-9.5881216 11.74582958 -9.94242643 10.39479021 -10.4375 7 C-10 4 -10 4 -8.375 1.625 C-5.24988831 -0.51323431 -3.71837535 -0.6829669 0 0 Z " fill="#9ADA85" transform="translate(175,45)"/>
<path d="M0 0 C2.9375 2.0625 2.9375 2.0625 5 5 C5.06625411 8.8427383 4.81899419 10.99200716 2.375 14 C-1.11581787 15.46981805 -3.39148956 14.98413921 -7 14 C-9.5881216 11.74582958 -9.94242643 10.39479021 -10.4375 7 C-10 4 -10 4 -8.375 1.625 C-5.24988831 -0.51323431 -3.71837535 -0.6829669 0 0 Z " fill="#F5BB41" transform="translate(115,45)"/>
<path d="M0 0 C2 1.625 2 1.625 3 4 C2.93439072 7.739729 2.76345433 10.0603639 0.375 13 C-3.11581787 14.46981805 -5.39148956 13.98413921 -9 13 C-11 11.375 -11 11.375 -12 9 C-11.93439072 5.260271 -11.76345433 2.9396361 -9.375 0 C-5.88418213 -1.46981805 -3.60851044 -0.98413921 0 0 Z " fill="#F54452" transform="translate(57,46)"/>
<path d="M0 0 C0.66 0 1.32 0 2 0 C2.67305018 1.60149886 3.33822227 3.20631029 4 4.8125 C4.37125 5.70582031 4.7425 6.59914062 5.125 7.51953125 C6 10 6 10 6 13 C2.7 13 -0.6 13 -4 13 C-3.27991594 8.39146203 -1.68704061 4.32762591 0 0 Z " fill="#D4DCEA" transform="translate(216,158)"/>
</svg>
